<svg id="Capa_1" data-name="Capa 1" xmlns="http://www.w3.org/2000/svg" viewBox="0 0 400 120"><path d="M18,62Q14,58,13.68,51.05c0-1.13-.06-2.89-.06-5.29s0-4.2.06-5.29Q13.91,33.6,18,29.58t11.39-4a17.91,17.91,0,0,1,8.39,1.8,14.14,14.14,0,0,1,5.17,4.3,9.07,9.07,0,0,1,1.86,4.65v.11a1,1,0,0,1-.36.76,1.29,1.29,0,0,1-.82.31H40.47a1.11,1.11,0,0,1-.76-.23,2.1,2.1,0,0,1-.48-.84A9.19,9.19,0,0,0,35.91,32a10.7,10.7,0,0,0-6.53-1.8A10.32,10.32,0,0,0,22,32.76c-1.8,1.73-2.75,4.39-2.87,8,0,1.09,0,2.76,0,5s0,3.88,0,5c.12,3.64,1.07,6.32,2.87,8a10.28,10.28,0,0,0,7.43,2.59A11,11,0,0,0,37,58.79C39,57,39.9,54.43,39.9,50.94V48.52H31.29a1.18,1.18,0,0,1-.92-.4,1.32,1.32,0,0,1-.37-.95V45.48a1.33,1.33,0,0,1,.37-1,1.2,1.2,0,0,1,.92-.39H43.9a1.25,1.25,0,0,1,1.35,1.35v5.34a16.56,16.56,0,0,1-1.88,8,13,13,0,0,1-5.49,5.35,18,18,0,0,1-8.5,1.88C24.5,66.07,20.72,64.72,18,62Z"/><path d="M53.69,65.15a1.36,1.36,0,0,1-.34-.93V27.47a1.41,1.41,0,0,1,.34-1,1.16,1.16,0,0,1,.9-.37H68.32q6.42,0,10.05,3T82,37.88a10.44,10.44,0,0,1-8.11,10.86l8.67,15a1.42,1.42,0,0,1,.17.62,1,1,0,0,1-.34.78,1.06,1.06,0,0,1-.79.34H79.13a2,2,0,0,1-1.33-.39A3.78,3.78,0,0,1,76.93,64l-8.27-14.4h-10V64.22a1.24,1.24,0,0,1-.39.93,1.36,1.36,0,0,1-1,.36h-2.7A1.19,1.19,0,0,1,53.69,65.15ZM68.1,45q8.49,0,8.49-7.14T68.1,30.68H58.64V45Z"/><path d="M93.76,62.16q-3.95-3.9-3.94-11.84V27.47a1.36,1.36,0,0,1,.34-1,1.13,1.13,0,0,1,.9-.37h2.7a1.27,1.27,0,0,1,1.35,1.35v23q0,5.52,2.56,8.22c1.71,1.8,4.13,2.7,7.29,2.7a9.44,9.44,0,0,0,7.23-2.73c1.7-1.82,2.56-4.55,2.56-8.19v-23a1.36,1.36,0,0,1,.34-1,1.2,1.2,0,0,1,1-.37h2.7a1.23,1.23,0,0,1,.93.37,1.3,1.3,0,0,1,.37,1V50.32q0,7.93-3.91,11.84T105,66.07Q97.7,66.07,93.76,62.16Z"/><path d="M129.89,65.15a1.32,1.32,0,0,1-.34-.93V27.47a1.36,1.36,0,0,1,.34-1,1.13,1.13,0,0,1,.9-.37H145q6.36,0,10,3.07t3.63,8.92Q158.64,44,155,47t-10,3H134.89V64.22a1.23,1.23,0,0,1-1.29,1.29h-2.81A1.16,1.16,0,0,1,129.89,65.15Zm14.85-19.67q8.5,0,8.5-7.37a7.07,7.07,0,0,0-2.11-5.52q-2.12-1.91-6.39-1.91h-9.85v14.8Z"/><path d="M168.38,62.22q-4-3.86-4.22-11.62c0-1.13-.06-2.72-.06-4.78s0-3.64.06-4.73q.22-7.65,4.36-11.59t11.17-3.94q7,0,11.14,3.94t4.33,11.59c.08,2.18.11,3.75.11,4.73s0,2.53-.11,4.78q-.22,7.77-4.19,11.62c-2.64,2.57-6.41,3.85-11.28,3.85S171,64.79,168.38,62.22Zm18.51-3.55c1.8-1.81,2.78-4.6,2.93-8.35.07-2.25.11-3.75.11-4.5s0-2.33-.11-4.51q-.23-5.62-2.93-8.38a10.81,10.81,0,0,0-14.43,0q-2.73,2.76-2.9,8.38c0,1.09-.06,2.59-.06,4.51s0,3.37.06,4.5c.11,3.75,1.07,6.54,2.87,8.35a10.94,10.94,0,0,0,14.46,0Z"/><path d="M202.9,65.09a1.35,1.35,0,0,1-.42-1V27.58a1.48,1.48,0,0,1,.39-1,1.32,1.32,0,0,1,1-.42h14.8q8.34,0,12.95,4t4.84,11.39c0,1.09.05,2.54.05,4.34s0,3.22-.05,4.27Q235.9,65.51,219,65.51H203.88A1.35,1.35,0,0,1,202.9,65.09Zm15.78-8c2.37,0,4.11-.56,5.24-1.69s1.72-2.92,1.8-5.4c.07-1.09.11-2.49.11-4.22s0-3.11-.11-4.16c-.08-2.41-.72-4.18-1.94-5.32a7.56,7.56,0,0,0-5.38-1.72h-5.34V57.07Z"/><path d="M243.36,65.09a1.35,1.35,0,0,1-.42-1V27.58a1.48,1.48,0,0,1,.39-1,1.32,1.32,0,0,1,1-.42h26.57a1.43,1.43,0,0,1,1.46,1.46v5.57a1.33,1.33,0,0,1-.42,1,1.48,1.48,0,0,1-1,.39H253.12v7.15h16.55a1.43,1.43,0,0,1,1.46,1.46v5.12a1.4,1.4,0,0,1-.42,1,1.42,1.42,0,0,1-1,.42H253.12v7.32h18.24a1.43,1.43,0,0,1,1.46,1.46v5.58a1.32,1.32,0,0,1-.42,1,1.48,1.48,0,0,1-1,.39h-27A1.35,1.35,0,0,1,243.36,65.09Z"/><path d="M289.62,65.09a1.35,1.35,0,0,1-.42-1v-12l-13-24.2a1.14,1.14,0,0,1,.19-1.43,1.13,1.13,0,0,1,.82-.37h7.43a2.06,2.06,0,0,1,1.29.39,2.58,2.58,0,0,1,.73.85l7.83,14.12,7.82-14.12a2.58,2.58,0,0,1,.73-.85,2.06,2.06,0,0,1,1.29-.39h7.43a1.25,1.25,0,0,1,1.18,1.18,1.11,1.11,0,0,1-.17.62l-13,24.2v12a1.32,1.32,0,0,1-.42,1,1.48,1.48,0,0,1-1,.39H290.6A1.35,1.35,0,0,1,289.62,65.09Z"/><path d="M310,65.15a1.13,1.13,0,0,1-.37-.82,1.69,1.69,0,0,1,.06-.51l13.11-36.07A2.2,2.2,0,0,1,325,26.12h8.78a2.19,2.19,0,0,1,2.25,1.63l13.11,36.07a1.69,1.69,0,0,1,.06.51,1.25,1.25,0,0,1-1.18,1.18h-7.32a1.94,1.94,0,0,1-1.91-1.24l-2-5.46H322.06l-2,5.46a1.94,1.94,0,0,1-1.91,1.24H310.8A1.12,1.12,0,0,1,310,65.15Zm14.43-14.78h10l-5-14.35Z"/><path d="M353.94,65.09a1.36,1.36,0,0,1-.43-1V27.58a1.48,1.48,0,0,1,.4-1,1.32,1.32,0,0,1,1-.42h6.36a2.06,2.06,0,0,1,1.91,1.07l13.28,21V27.58a1.48,1.48,0,0,1,.4-1,1.32,1.32,0,0,1,1-.42H385a1.32,1.32,0,0,1,1,.42,1.48,1.48,0,0,1,.4,1V64.05a1.48,1.48,0,0,1-.4,1,1.32,1.32,0,0,1-1,.42h-6.36a2,2,0,0,1-1.91-1.07L363.53,44.3V64.11a1.32,1.32,0,0,1-.42,1,1.48,1.48,0,0,1-1,.39h-7.15A1.35,1.35,0,0,1,353.94,65.09Z"/><path d="M96.74,91.24A6.28,6.28,0,0,1,95,86.83q0-.67,0-2.13c0-1,0-1.69,0-2.12a6.15,6.15,0,0,1,1.73-4.38,6.23,6.23,0,0,1,4.58-1.62,7.21,7.21,0,0,1,3.37.72A5.62,5.62,0,0,1,106.76,79a3.65,3.65,0,0,1,.75,1.86v0a.37.37,0,0,1-.15.3.44.44,0,0,1-.32.13h-1.27a.46.46,0,0,1-.31-.09.87.87,0,0,1-.19-.34,3.7,3.7,0,0,0-1.33-1.79,4.34,4.34,0,0,0-2.63-.72,4.12,4.12,0,0,0-3,1,4.45,4.45,0,0,0-1.15,3.21c0,.44,0,1.11,0,2s0,1.56,0,2A4.48,4.48,0,0,0,98.32,90a4.12,4.12,0,0,0,3,1,4.41,4.41,0,0,0,3.08-1,4,4,0,0,0,1.15-3.15v-1h-3.46a.46.46,0,0,1-.37-.16.52.52,0,0,1-.15-.38v-.68a.52.52,0,0,1,.15-.38.46.46,0,0,1,.37-.16h5.07a.55.55,0,0,1,.39.14.54.54,0,0,1,.15.4v2.15a6.55,6.55,0,0,1-.76,3.22,5.13,5.13,0,0,1-2.2,2.15,7.25,7.25,0,0,1-3.42.76A6.17,6.17,0,0,1,96.74,91.24Z"/><path d="M111.08,92.5a.53.53,0,0,1-.13-.38V77.33a.55.55,0,0,1,.13-.38.53.53,0,0,1,.37-.14h1.13a.49.49,0,0,1,.36.14.56.56,0,0,1,.14.38V90.75h7.55a.53.53,0,0,1,.4.14.5.5,0,0,1,.15.38v.85a.51.51,0,0,1-.16.38.56.56,0,0,1-.39.15h-9.18A.5.5,0,0,1,111.08,92.5Z"/><path d="M124.53,91.32a6.48,6.48,0,0,1-1.7-4.67c0-.45,0-1.09,0-1.92s0-1.47,0-1.9a6.42,6.42,0,0,1,1.75-4.67,7.16,7.16,0,0,1,9,0,6.42,6.42,0,0,1,1.75,4.67c0,.87,0,1.5,0,1.9s0,1,0,1.92a6.52,6.52,0,0,1-1.69,4.67,7.42,7.42,0,0,1-9.08,0ZM132,89.9a4.93,4.93,0,0,0,1.18-3.36c0-.91,0-1.51,0-1.81s0-.94,0-1.81A5,5,0,0,0,132,79.54a4.37,4.37,0,0,0-5.8,0A4.89,4.89,0,0,0,125,82.92c0,.43,0,1,0,1.81s0,1.35,0,1.81a4.83,4.83,0,0,0,1.16,3.36,4.42,4.42,0,0,0,5.81,0Z"/><path d="M138.83,92.5a.54.54,0,0,1-.14-.38V77.35a.57.57,0,0,1,.14-.4.49.49,0,0,1,.36-.14h6.18A5.11,5.11,0,0,1,149,78a4,4,0,0,1,1.22,3,3.62,3.62,0,0,1-2,3.35,4.08,4.08,0,0,1,1.63,1.47,4,4,0,0,1,.66,2.28,4.71,4.71,0,0,1-.58,2.31A4.13,4.13,0,0,1,148.24,92a5.54,5.54,0,0,1-2.69.62h-6.36A.46.46,0,0,1,138.83,92.5Zm6.2-9a3.37,3.37,0,0,0,2.24-.67A2.36,2.36,0,0,0,148,81a2.19,2.19,0,0,0-.76-1.79,3.59,3.59,0,0,0-2.25-.61h-4.21v4.94Zm.22,7.33a3.19,3.19,0,0,0,2.28-.78,2.87,2.87,0,0,0,0-4,3.23,3.23,0,0,0-2.28-.77h-4.43v5.57Z"/><path d="M152.2,92.51a.45.45,0,0,1-.14-.32l.05-.25,5.61-14.64a.7.7,0,0,1,.72-.49h1.45a.7.7,0,0,1,.73.49l5.61,14.64,0,.25a.41.41,0,0,1-.14.32.49.49,0,0,1-.33.14h-1.06a.58.58,0,0,1-.38-.13.56.56,0,0,1-.19-.26L162.9,89h-7.49l-1.24,3.26a.6.6,0,0,1-.57.39h-1.08A.45.45,0,0,1,152.2,92.51Zm3.87-5.39h6.2L159.17,79Z"/><path d="M168.85,92.5a.53.53,0,0,1-.13-.38V77.33a.55.55,0,0,1,.13-.38.5.5,0,0,1,.37-.14h1.13a.49.49,0,0,1,.36.14.55.55,0,0,1,.13.38V90.75h7.56a.53.53,0,0,1,.4.14.5.5,0,0,1,.15.38v.85a.51.51,0,0,1-.16.38.56.56,0,0,1-.39.15h-9.18A.47.47,0,0,1,168.85,92.5Z"/><path d="M188.21,92.28a4.83,4.83,0,0,1-2.08-1.55,3.63,3.63,0,0,1-.76-2.07.43.43,0,0,1,.14-.31.46.46,0,0,1,.34-.14H187a.57.57,0,0,1,.56.45,2.73,2.73,0,0,0,1.17,1.64,4.65,4.65,0,0,0,2.75.69,4.88,4.88,0,0,0,2.87-.68,2.17,2.17,0,0,0,.95-1.87,1.77,1.77,0,0,0-.46-1.27,3.9,3.9,0,0,0-1.38-.87c-.61-.25-1.53-.56-2.75-.92a13.1,13.1,0,0,1-2.77-1.06,4.18,4.18,0,0,1-1.56-1.39,3.94,3.94,0,0,1-.52-2.1,3.76,3.76,0,0,1,.66-2.18,4.42,4.42,0,0,1,1.9-1.52,7.18,7.18,0,0,1,2.94-.55,6.77,6.77,0,0,1,3,.62,5.07,5.07,0,0,1,1.92,1.56,3.67,3.67,0,0,1,.7,1.89.48.48,0,0,1-.48.48h-1.13A.56.56,0,0,1,195,81a.57.57,0,0,1-.22-.33,2.32,2.32,0,0,0-1.09-1.61,4.22,4.22,0,0,0-2.38-.63,4.36,4.36,0,0,0-2.44.6,2,2,0,0,0-.91,1.77,1.93,1.93,0,0,0,.42,1.29,3.47,3.47,0,0,0,1.29.88,23.24,23.24,0,0,0,2.55.89,18.28,18.28,0,0,1,3,1.08,4.08,4.08,0,0,1,1.64,1.35,3.62,3.62,0,0,1,.54,2.07,3.86,3.86,0,0,1-1.62,3.31,7.15,7.15,0,0,1-4.37,1.19A8,8,0,0,1,188.21,92.28Z"/><path d="M201.53,91.32a6.48,6.48,0,0,1-1.7-4.67c0-.45,0-1.09,0-1.92s0-1.47,0-1.9a6.46,6.46,0,0,1,1.75-4.67,7.17,7.17,0,0,1,9,0,6.46,6.46,0,0,1,1.74,4.67c0,.87,0,1.5,0,1.9s0,1,0,1.92a6.48,6.48,0,0,1-1.69,4.67,6.19,6.19,0,0,1-4.53,1.55A6.26,6.26,0,0,1,201.53,91.32ZM209,89.9a4.88,4.88,0,0,0,1.18-3.36c0-.91,0-1.51,0-1.81s0-.94,0-1.81A4.94,4.94,0,0,0,209,79.54a3.85,3.85,0,0,0-2.89-1.1,3.9,3.9,0,0,0-2.91,1.1A4.89,4.89,0,0,0,202,82.92c0,.43,0,1,0,1.81s0,1.35,0,1.81a4.83,4.83,0,0,0,1.16,3.36,4.42,4.42,0,0,0,5.81,0Z"/><path d="M215.83,92.5a.54.54,0,0,1-.14-.38V77.33a.56.56,0,0,1,.14-.38.49.49,0,0,1,.36-.14h1.13a.49.49,0,0,1,.36.14.51.51,0,0,1,.14.38V90.75h7.56a.5.5,0,0,1,.54.52v.85a.48.48,0,0,1-.16.38.52.52,0,0,1-.38.15h-9.19A.46.46,0,0,1,215.83,92.5Z"/><path d="M229.43,91.3a6.44,6.44,0,0,1-1.59-4.76V77.35A.57.57,0,0,1,228,77a.49.49,0,0,1,.36-.14h1.09a.55.55,0,0,1,.39.14.54.54,0,0,1,.15.4v9.23a4.61,4.61,0,0,0,1,3.3A3.83,3.83,0,0,0,233.93,91a3.78,3.78,0,0,0,2.91-1.1,4.64,4.64,0,0,0,1-3.29V77.35A.57.57,0,0,1,238,77a.53.53,0,0,1,.39-.14h1.08a.56.56,0,0,1,.38.14.54.54,0,0,1,.15.4v9.19a6.48,6.48,0,0,1-1.58,4.76,7.22,7.22,0,0,1-9,0Z"/><path d="M247.43,92.5a.5.5,0,0,1-.15-.38V78.75h-4.37a.5.5,0,0,1-.37-.15.48.48,0,0,1-.15-.37v-.88a.5.5,0,0,1,.52-.54h10.87a.52.52,0,0,1,.38.14.57.57,0,0,1,.14.4v.88a.48.48,0,0,1-.15.37.5.5,0,0,1-.37.15h-4.35V92.12a.48.48,0,0,1-.16.38.52.52,0,0,1-.38.15H247.8A.5.5,0,0,1,247.43,92.5Z"/><path d="M257,92.5a.53.53,0,0,1-.13-.38V77.33A.55.55,0,0,1,257,77a.49.49,0,0,1,.36-.14h1.13a.47.47,0,0,1,.53.52V92.12a.51.51,0,0,1-.53.53h-1.13A.46.46,0,0,1,257,92.5Z"/><path d="M264.12,91.32a6.44,6.44,0,0,1-1.7-4.67c0-.45,0-1.09,0-1.92s0-1.47,0-1.9a6.42,6.42,0,0,1,1.75-4.67,7.16,7.16,0,0,1,9,0,6.42,6.42,0,0,1,1.75,4.67c0,.87,0,1.5,0,1.9s0,1,0,1.92a6.52,6.52,0,0,1-1.69,4.67,7.42,7.42,0,0,1-9.08,0Zm7.44-1.42a4.88,4.88,0,0,0,1.18-3.36c0-.91,0-1.51,0-1.81s0-.94,0-1.81a4.94,4.94,0,0,0-1.18-3.38,4.37,4.37,0,0,0-5.8,0,4.89,4.89,0,0,0-1.17,3.38c0,.43,0,1,0,1.81s0,1.35,0,1.81a4.83,4.83,0,0,0,1.16,3.36,4.42,4.42,0,0,0,5.81,0Z"/><path d="M278.42,92.5a.54.54,0,0,1-.14-.38V77.35a.57.57,0,0,1,.14-.4.49.49,0,0,1,.36-.14h1a.53.53,0,0,1,.34.09,1.56,1.56,0,0,1,.23.22l7.58,11.68V77.35a.5.5,0,0,1,.52-.54h1a.59.59,0,0,1,.4.14.57.57,0,0,1,.14.4V92.1a.6.6,0,0,1-.14.39.53.53,0,0,1-.38.16h-1a.57.57,0,0,1-.54-.32l-7.58-11.56V92.12a.5.5,0,0,1-.15.38.5.5,0,0,1-.37.15h-1A.46.46,0,0,1,278.42,92.5Z"/><path d="M295.78,92.28a4.89,4.89,0,0,1-2.08-1.55,3.7,3.7,0,0,1-.76-2.07.43.43,0,0,1,.14-.31.46.46,0,0,1,.34-.14h1.11a.57.57,0,0,1,.56.45,2.73,2.73,0,0,0,1.17,1.64A4.67,4.67,0,0,0,299,91a4.88,4.88,0,0,0,2.87-.68,2.15,2.15,0,0,0,.95-1.87,1.77,1.77,0,0,0-.46-1.27A3.9,3.9,0,0,0,301,86.3c-.61-.25-1.53-.56-2.75-.92a13.32,13.32,0,0,1-2.77-1.06,4.07,4.07,0,0,1-1.55-1.39,4.22,4.22,0,0,1,.13-4.28,4.42,4.42,0,0,1,1.9-1.52,7.18,7.18,0,0,1,2.94-.55,6.85,6.85,0,0,1,3,.62,5.11,5.11,0,0,1,1.91,1.56,3.58,3.58,0,0,1,.7,1.89.48.48,0,0,1-.48.48h-1.13a.56.56,0,0,1-.34-.12.57.57,0,0,1-.22-.33,2.29,2.29,0,0,0-1.09-1.61,4.2,4.2,0,0,0-2.38-.63,4.36,4.36,0,0,0-2.44.6A2.21,2.21,0,0,0,296,82.1a3.47,3.47,0,0,0,1.29.88,23.24,23.24,0,0,0,2.55.89,18.28,18.28,0,0,1,3,1.08,4.08,4.08,0,0,1,1.64,1.35,3.62,3.62,0,0,1,.54,2.07,3.88,3.88,0,0,1-1.61,3.31A7.2,7.2,0,0,1,299,92.87,8,8,0,0,1,295.78,92.28Z"/></svg>